<mxfile modified="2021-09-18T04:35:04.910Z" host="app.diagrams.net" agent="5.0 (Windows NT 10.0; Win64; x64) AppleWebKit/537.36 (KHTML, like Gecko) Chrome/93.0.4577.63 Safari/537.36 Edg/93.0.961.47" etag="a2QsLlRKpIbAxIO6XIoo" version="14.9.0" type="github">
  <diagram id="l8hXMBHkgcEJcSW0mbfh" name="Page-1">
    <mxGraphModel dx="1185" dy="662" grid="1" gridSize="10" guides="1" tooltips="1" connect="1" arrows="1" fold="1" page="1" pageScale="1" pageWidth="1169" pageHeight="827" math="0" shadow="0">
      <root>
        <mxCell id="0" />
        <mxCell id="1" parent="0" />
        <mxCell id="warRbZFzXAgfNDQAufo_-29" value="Transfer the model" style="edgeStyle=orthogonalEdgeStyle;rounded=0;orthogonalLoop=1;jettySize=auto;html=1;exitX=1;exitY=0.5;exitDx=0;exitDy=0;fontSize=16;labelBackgroundColor=none;" parent="1" source="warRbZFzXAgfNDQAufo_-24" edge="1">
          <mxGeometry x="-0.2824" y="-12" relative="1" as="geometry">
            <mxPoint x="602" y="334.0000000000002" as="sourcePoint" />
            <mxPoint x="710" y="220" as="targetPoint" />
            <Array as="points">
              <mxPoint x="710" y="378" />
            </Array>
            <mxPoint as="offset" />
          </mxGeometry>
        </mxCell>
        <mxCell id="warRbZFzXAgfNDQAufo_-3" style="edgeStyle=orthogonalEdgeStyle;rounded=0;orthogonalLoop=1;jettySize=auto;html=1;exitX=0.5;exitY=1;exitDx=0;exitDy=0;" parent="1" source="warRbZFzXAgfNDQAufo_-1" target="warRbZFzXAgfNDQAufo_-7" edge="1">
          <mxGeometry relative="1" as="geometry">
            <mxPoint x="434" y="214" as="targetPoint" />
          </mxGeometry>
        </mxCell>
        <mxCell id="warRbZFzXAgfNDQAufo_-1" value="Data node" style="shape=image;verticalLabelPosition=top;verticalAlign=bottom;imageAspect=0;aspect=fixed;image=data:image/svg+xml,PHN2ZyB4bWxucz0iaHR0cDovL3d3dy53My5vcmcvMjAwMC9zdmciIHZlcnNpb249IjEiIHZpZXdCb3g9IjAgMCA0OCA0OCIgZW5hYmxlLWJhY2tncm91bmQ9Im5ldyAwIDAgNDggNDgiPiYjeGE7ICAgIDxwb2x5Z29uIGZpbGw9IiNGRjk4MDAiIHBvaW50cz0iMjQsMzcgMTksMzEgMTksMjUgMjksMjUgMjksMzEiLz4mI3hhOyAgICA8ZyBmaWxsPSIjRkZBNzI2Ij4mI3hhOyAgICAgICAgPGNpcmNsZSBjeD0iMzMiIGN5PSIxOSIgcj0iMiIvPiYjeGE7ICAgICAgICA8Y2lyY2xlIGN4PSIxNSIgY3k9IjE5IiByPSIyIi8+JiN4YTsgICAgPC9nPiYjeGE7ICAgIDxwYXRoIGZpbGw9IiNGRkI3NEQiIGQ9Ik0zMywxM2MwLTcuNi0xOC01LTE4LDBjMCwxLjEsMCw1LjksMCw3YzAsNSw0LDksOSw5czktNCw5LTlDMzMsMTguOSwzMywxNC4xLDMzLDEzeiIvPiYjeGE7ICAgIDxwYXRoIGZpbGw9IiM0MjQyNDIiIGQ9Ik0yNCw0Yy02LjEsMC0xMCw0LjktMTAsMTFjMCwwLjgsMCwyLjMsMCwyLjNsMiwxLjd2LTVsMTItNGw0LDR2NWwyLTEuN2MwLDAsMC0xLjUsMC0yLjNjMC00LTEtOC02LTlsLTEtMiBIMjR6Ii8+JiN4YTsgICAgPGcgZmlsbD0iIzc4NDcxOSI+JiN4YTsgICAgICAgIDxjaXJjbGUgY3g9IjI4IiBjeT0iMTkiIHI9IjEiLz4mI3hhOyAgICAgICAgPGNpcmNsZSBjeD0iMjAiIGN5PSIxOSIgcj0iMSIvPiYjeGE7ICAgIDwvZz4mI3hhOyAgICA8cG9seWdvbiBmaWxsPSIjZmZmIiBwb2ludHM9IjI0LDQzIDE5LDMxIDI0LDMyIDI5LDMxIi8+JiN4YTsgICAgPHBvbHlnb24gZmlsbD0iI0QzMkYyRiIgcG9pbnRzPSIyMywzNSAyMi4zLDM5LjUgMjQsNDMuNSAyNS43LDM5LjUgMjUsMzUgMjYsMzQgMjQsMzIgMjIsMzQiLz4mI3hhOyAgICA8cGF0aCBmaWxsPSIjNTQ2RTdBIiBkPSJNMjksMzFMMjksMzFsLTUsMTJsLTUtMTJjMCwwLTExLDItMTEsMTNoMzJDNDAsMzMsMjksMzEsMjksMzF6Ii8+JiN4YTs8L3N2Zz4=;labelPosition=center;align=center;fontSize=16;" parent="1" vertex="1">
          <mxGeometry x="244" y="172" width="48" height="48" as="geometry" />
        </mxCell>
        <mxCell id="warRbZFzXAgfNDQAufo_-2" value="" style="shape=image;verticalLabelPosition=bottom;verticalAlign=top;imageAspect=0;aspect=fixed;image=data:image/svg+xml,PHN2ZyB4bWxucz0iaHR0cDovL3d3dy53My5vcmcvMjAwMC9zdmciIHZlcnNpb249IjEiIHZpZXdCb3g9IjAgMCA0OCA0OCIgZW5hYmxlLWJhY2tncm91bmQ9Im5ldyAwIDAgNDggNDgiPiYjeGE7ICAgIDxwYXRoIGZpbGw9IiM1MTJEQTgiIGQ9Ik0zMy45LDEyLjFIMTQuMkwxNy42LDdjMC40LTAuNiwxLTAuOSwxLjctMC45aDkuNmMwLjcsMCwxLjMsMC4zLDEuNywwLjlMMzMuOSwxMi4xeiIvPiYjeGE7ICAgIDxwYXRoIGZpbGw9IiM4NjY3QzQiIGQ9Ik0xNCwxMUg4VjkuMkM4LDguNSw4LjUsOCw5LjIsOGgzLjZDMTMuNSw4LDE0LDguNSwxNCw5LjJWMTF6Ii8+JiN4YTsgICAgPHBhdGggZmlsbD0iIzVFMzVCMSIgZD0iTTQwLDQySDhjLTIuMiwwLTQtMS44LTQtNFYxNGMwLTIuMiwxLjgtNCw0LTRoMzJjMi4yLDAsNCwxLjgsNCw0djI0QzQ0LDQwLjIsNDIuMiw0Miw0MCw0MnoiLz4mI3hhOyAgICA8Y2lyY2xlIGZpbGw9IiM1MTJEQTgiIGN4PSIyNCIgY3k9IjI2IiByPSIxMiIvPiYjeGE7ICAgIDxjaXJjbGUgZmlsbD0iI0IzODhGRiIgY3g9IjI0IiBjeT0iMjYiIHI9IjkiLz4mI3hhOyAgICA8cGF0aCBmaWxsPSIjQzdBN0ZGIiBkPSJNMjksMjNjLTEuMi0xLjQtMy0yLjItNC44LTIuMmMtMS44LDAtMy42LDAuOC00LjgsMi4yYy0wLjUsMC41LTAuNCwxLjMsMC4xLDEuOGMwLjUsMC41LDEuMywwLjQsMS44LTAuMSBjMS41LTEuNyw0LjMtMS43LDUuOCwwYzAuMywwLjMsMC42LDAuNCwxLDAuNGMwLjMsMCwwLjYtMC4xLDAuOS0wLjNDMjkuNCwyNC40LDI5LjUsMjMuNSwyOSwyM3oiLz4mI3hhOyAgICA8ZWxsaXBzZSBmaWxsPSIjODY2N0M0IiBjeD0iMTEiIGN5PSIxMy41IiByeD0iMiIgcnk9IjEuNSIvPiYjeGE7PC9zdmc+" parent="1" vertex="1">
          <mxGeometry x="234" y="314" width="28" height="28" as="geometry" />
        </mxCell>
        <mxCell id="warRbZFzXAgfNDQAufo_-4" value="" style="shape=image;verticalLabelPosition=bottom;verticalAlign=top;imageAspect=0;aspect=fixed;image=data:image/svg+xml,PHN2ZyB4bWxucz0iaHR0cDovL3d3dy53My5vcmcvMjAwMC9zdmciIHZlcnNpb249IjEiIHZpZXdCb3g9IjAgMCA0OCA0OCIgZW5hYmxlLWJhY2tncm91bmQ9Im5ldyAwIDAgNDggNDgiPiYjeGE7ICAgIDxwYXRoIGZpbGw9IiNGNTdDMDAiIGQ9Ik00MCw0MUg4Yy0yLjIsMC00LTEuOC00LTRWMTFjMC0yLjIsMS44LTQsNC00aDMyYzIuMiwwLDQsMS44LDQsNHYyNkM0NCwzOS4yLDQyLjIsNDEsNDAsNDF6Ii8+JiN4YTsgICAgPGNpcmNsZSBmaWxsPSIjRkZGOUM0IiBjeD0iMzUiIGN5PSIxNiIgcj0iMyIvPiYjeGE7ICAgIDxwb2x5Z29uIGZpbGw9IiM5NDJBMDkiIHBvaW50cz0iMjAsMTYgOSwzMiAzMSwzMiIvPiYjeGE7ICAgIDxwb2x5Z29uIGZpbGw9IiNCRjM2MEMiIHBvaW50cz0iMzEsMjIgMjMsMzIgMzksMzIiLz4mI3hhOzwvc3ZnPg==" parent="1" vertex="1">
          <mxGeometry x="274" y="295" width="28" height="28" as="geometry" />
        </mxCell>
        <mxCell id="warRbZFzXAgfNDQAufo_-5" value="" style="shape=image;verticalLabelPosition=bottom;verticalAlign=top;imageAspect=0;aspect=fixed;image=data:image/svg+xml,PHN2ZyB4bWxucz0iaHR0cDovL3d3dy53My5vcmcvMjAwMC9zdmciIHZlcnNpb249IjEiIHZpZXdCb3g9IjAgMCA0OCA0OCIgZW5hYmxlLWJhY2tncm91bmQ9Im5ldyAwIDAgNDggNDgiPiYjeGE7ICAgIDxwYXRoIGZpbGw9IiNGNTdDMDAiIGQ9Ik00MCw0MUg4Yy0yLjIsMC00LTEuOC00LTRWMTFjMC0yLjIsMS44LTQsNC00aDMyYzIuMiwwLDQsMS44LDQsNHYyNkM0NCwzOS4yLDQyLjIsNDEsNDAsNDF6Ii8+JiN4YTsgICAgPGNpcmNsZSBmaWxsPSIjRkZGOUM0IiBjeD0iMzUiIGN5PSIxNiIgcj0iMyIvPiYjeGE7ICAgIDxwb2x5Z29uIGZpbGw9IiM5NDJBMDkiIHBvaW50cz0iMjAsMTYgOSwzMiAzMSwzMiIvPiYjeGE7ICAgIDxwb2x5Z29uIGZpbGw9IiNCRjM2MEMiIHBvaW50cz0iMzEsMjIgMjMsMzIgMzksMzIiLz4mI3hhOzwvc3ZnPg==" parent="1" vertex="1">
          <mxGeometry x="274" y="314" width="28" height="28" as="geometry" />
        </mxCell>
        <mxCell id="warRbZFzXAgfNDQAufo_-6" value="" style="shape=image;verticalLabelPosition=bottom;verticalAlign=top;imageAspect=0;aspect=fixed;image=data:image/svg+xml,PHN2ZyB4bWxucz0iaHR0cDovL3d3dy53My5vcmcvMjAwMC9zdmciIHZlcnNpb249IjEiIHZpZXdCb3g9IjAgMCA0OCA0OCIgZW5hYmxlLWJhY2tncm91bmQ9Im5ldyAwIDAgNDggNDgiPiYjeGE7ICAgIDxwYXRoIGZpbGw9IiNGNTdDMDAiIGQ9Ik00MCw0MUg4Yy0yLjIsMC00LTEuOC00LTRWMTFjMC0yLjIsMS44LTQsNC00aDMyYzIuMiwwLDQsMS44LDQsNHYyNkM0NCwzOS4yLDQyLjIsNDEsNDAsNDF6Ii8+JiN4YTsgICAgPGNpcmNsZSBmaWxsPSIjRkZGOUM0IiBjeD0iMzUiIGN5PSIxNiIgcj0iMyIvPiYjeGE7ICAgIDxwb2x5Z29uIGZpbGw9IiM5NDJBMDkiIHBvaW50cz0iMjAsMTYgOSwzMiAzMSwzMiIvPiYjeGE7ICAgIDxwb2x5Z29uIGZpbGw9IiNCRjM2MEMiIHBvaW50cz0iMzEsMjIgMjMsMzIgMzksMzIiLz4mI3hhOzwvc3ZnPg==" parent="1" vertex="1">
          <mxGeometry x="274" y="342" width="28" height="28" as="geometry" />
        </mxCell>
        <mxCell id="warRbZFzXAgfNDQAufo_-10" style="edgeStyle=orthogonalEdgeStyle;rounded=0;orthogonalLoop=1;jettySize=auto;html=1;exitX=1;exitY=0.5;exitDx=0;exitDy=0;" parent="1" source="warRbZFzXAgfNDQAufo_-7" target="warRbZFzXAgfNDQAufo_-9" edge="1">
          <mxGeometry relative="1" as="geometry" />
        </mxCell>
        <mxCell id="warRbZFzXAgfNDQAufo_-7" value="DP Algorithm" style="shape=image;verticalLabelPosition=bottom;verticalAlign=top;imageAspect=0;aspect=fixed;image=data:image/svg+xml,PHN2ZyB4bWxucz0iaHR0cDovL3d3dy53My5vcmcvMjAwMC9zdmciIHZlcnNpb249IjEiIHZpZXdCb3g9IjAgMCA0OCA0OCIgZW5hYmxlLWJhY2tncm91bmQ9Im5ldyAwIDAgNDggNDgiPiYjeGE7ICAgIDxyZWN0IHg9IjciIHk9IjMxIiBmaWxsPSIjMDBCQ0Q0IiB3aWR0aD0iMTAiIGhlaWdodD0iMTAiLz4mI3hhOyAgICA8cGF0aCBmaWxsPSIjMDBCQ0Q0IiBkPSJNMzUuMywxOS4zbC01LjYtNS42Yy0wLjQtMC40LTAuNC0xLDAtMS40bDUuNi01LjZjMC40LTAuNCwxLTAuNCwxLjQsMGw1LjYsNS42YzAuNCwwLjQsMC40LDEsMCwxLjQgbC01LjYsNS42QzM2LjMsMTkuNywzNS43LDE5LjcsMzUuMywxOS4zeiIvPiYjeGE7ICAgIDxjaXJjbGUgZmlsbD0iIzNGNTFCNSIgY3g9IjEyIiBjeT0iMTMiIHI9IjYiLz4mI3hhOyAgICA8Y2lyY2xlIGZpbGw9IiM0NDhBRkYiIGN4PSIzNiIgY3k9IjM2IiByPSI2Ii8+JiN4YTsgICAgPGcgZmlsbD0iIzkwQTRBRSI+JiN4YTsgICAgICAgIDxyZWN0IHg9IjExIiB5PSIyNCIgd2lkdGg9IjIiIGhlaWdodD0iNSIvPiYjeGE7ICAgICAgICA8cG9seWdvbiBwb2ludHM9IjEyLDIxIDksMjUgMTUsMjUiLz4mI3hhOyAgICA8L2c+JiN4YTsgICAgPGcgZmlsbD0iIzkwQTRBRSI+JiN4YTsgICAgICAgIDxyZWN0IHg9IjIwIiB5PSIxMiIgd2lkdGg9IjUiIGhlaWdodD0iMiIvPiYjeGE7ICAgICAgICA8cG9seWdvbiBwb2ludHM9IjI4LDEzIDI0LDEwIDI0LDE2Ii8+JiN4YTsgICAgPC9nPiYjeGE7ICAgIDxnIGZpbGw9IiM5MEE0QUUiPiYjeGE7ICAgICAgICA8cmVjdCB4PSIzNSIgeT0iMjEiIHdpZHRoPSIyIiBoZWlnaHQ9IjUiLz4mI3hhOyAgICAgICAgPHBvbHlnb24gcG9pbnRzPSIzNiwyOSAzOSwyNSAzMywyNSIvPiYjeGE7ICAgIDwvZz4mI3hhOzwvc3ZnPg==;fontSize=16;" parent="1" vertex="1">
          <mxGeometry x="244" y="428" width="48" height="48" as="geometry" />
        </mxCell>
        <mxCell id="warRbZFzXAgfNDQAufo_-28" value="Return facial data" style="edgeStyle=orthogonalEdgeStyle;rounded=0;orthogonalLoop=1;jettySize=auto;html=1;exitX=1;exitY=0.75;exitDx=0;exitDy=0;fontSize=16;entryX=0.5;entryY=1;entryDx=0;entryDy=0;labelBackgroundColor=none;" parent="1" edge="1">
          <mxGeometry x="0.1626" y="-14" relative="1" as="geometry">
            <mxPoint x="582.0000000000002" y="403" as="targetPoint" />
            <mxPoint x="442" y="466" as="sourcePoint" />
            <mxPoint as="offset" />
          </mxGeometry>
        </mxCell>
        <mxCell id="warRbZFzXAgfNDQAufo_-9" value="IPFS" style="shape=image;verticalLabelPosition=bottom;verticalAlign=top;imageAspect=0;aspect=fixed;image=data:image/svg+xml,PHN2ZyB4bWxucz0iaHR0cDovL3d3dy53My5vcmcvMjAwMC9zdmciIHZlcnNpb249IjEiIHZpZXdCb3g9IjAgMCA0OCA0OCIgZW5hYmxlLWJhY2tncm91bmQ9Im5ldyAwIDAgNDggNDgiPiYjeGE7ICAgIDxyZWN0IHg9IjE3IiB5PSIyOSIgZmlsbD0iIzAzOUJFNSIgd2lkdGg9IjE0IiBoZWlnaHQ9IjIiLz4mI3hhOyAgICA8cmVjdCB4PSIxMyIgeT0iMzMiIGZpbGw9IiMwMzlCRTUiIHdpZHRoPSIyMiIgaGVpZ2h0PSIyIi8+JiN4YTsgICAgPHJlY3QgeD0iOSIgeT0iMzciIGZpbGw9IiMwMzlCRTUiIHdpZHRoPSIzMCIgaGVpZ2h0PSIyIi8+JiN4YTsgICAgPHJlY3QgeD0iNSIgeT0iNDEiIGZpbGw9IiMwMzlCRTUiIHdpZHRoPSIzOCIgaGVpZ2h0PSIyIi8+JiN4YTsgICAgPHBhdGggZmlsbD0iIzgxRDRGQSIgZD0iTTM1LDEzYy0wLjQsMC0wLjgsMC0xLjIsMC4xQzMyLjksOC41LDI4LjksNSwyNCw1Yy00LjEsMC03LjYsMi41LTkuMiw2Yy0wLjMsMC0wLjUsMC0wLjgsMCBjLTQuNCwwLTgsMy42LTgsOHMzLjYsOCw4LDhjMi40LDAsMTguNSwwLDIxLDBjMy45LDAsNy0zLjEsNy03QzQyLDE2LjEsMzguOSwxMywzNSwxM3oiLz4mI3hhOyAgICA8cGF0aCBmaWxsPSIjMDM5QkU1IiBkPSJNMjgsMjFjMC0yLjItMS44LTQtNC00cy00LDEuOC00LDRjMCwwLjUsMCw2LDAsNmg4QzI4LDI3LDI4LDIxLjUsMjgsMjF6Ii8+JiN4YTs8L3N2Zz4=;fontSize=16;" parent="1" vertex="1">
          <mxGeometry x="394" y="428" width="48" height="48" as="geometry" />
        </mxCell>
        <mxCell id="warRbZFzXAgfNDQAufo_-11" value="" style="shape=image;verticalLabelPosition=bottom;verticalAlign=top;imageAspect=0;aspect=fixed;image=data:image/svg+xml,PHN2ZyB4bWxucz0iaHR0cDovL3d3dy53My5vcmcvMjAwMC9zdmciIHZlcnNpb249IjEiIHZpZXdCb3g9IjAgMCA0OCA0OCIgZW5hYmxlLWJhY2tncm91bmQ9Im5ldyAwIDAgNDggNDgiPiYjeGE7ICAgIDxwYXRoIGZpbGw9IiNGNTdDMDAiIGQ9Ik00LDl2MzJjMCwwLDguNC0zLDIwLTNzMjAsMywyMCwzVjljMCwwLTYuNywzLTIwLDNTNCw5LDQsOXoiLz4mI3hhOyAgICA8cGF0aCBmaWxsPSIjOTQyQTA5IiBkPSJNMjQsMzRjMC4xLDAsMC4zLDAsMC40LDBMMTUsMTlMNi45LDM2LjJDMTAuMywzNS4zLDE2LjUsMzQsMjQsMzR6Ii8+JiN4YTsgICAgPHBhdGggZmlsbD0iI0JGMzYwQyIgZD0iTTI0LDM0YzMuMywwLDYuMywwLjIsOSwwLjZsLTgtMTEuOGwtNy44LDExLjVDMTkuMywzNC4xLDIxLjYsMzQsMjQsMzR6Ii8+JiN4YTsgICAgPHBhdGggZmlsbD0iI0U2NTEwMCIgZD0iTTQwLjcsMzZMMzUsMjYuNWwtNSw3LjhDMzQuNSwzNC43LDM4LjIsMzUuNCw0MC43LDM2eiIvPiYjeGE7ICAgIDxlbGxpcHNlIGZpbGw9IiNGRkY5QzQiIGN4PSIzNiIgY3k9IjE5LjUiIHJ4PSIyIiByeT0iMi41Ii8+JiN4YTs8L3N2Zz4=" parent="1" vertex="1">
          <mxGeometry x="302" y="424" width="28" height="28" as="geometry" />
        </mxCell>
        <mxCell id="warRbZFzXAgfNDQAufo_-12" value="" style="shape=image;verticalLabelPosition=bottom;verticalAlign=top;imageAspect=0;aspect=fixed;image=data:image/svg+xml,PHN2ZyB4bWxucz0iaHR0cDovL3d3dy53My5vcmcvMjAwMC9zdmciIHZlcnNpb249IjEiIHZpZXdCb3g9IjAgMCA0OCA0OCIgZW5hYmxlLWJhY2tncm91bmQ9Im5ldyAwIDAgNDggNDgiPiYjeGE7ICAgIDxwYXRoIGZpbGw9IiNGNTdDMDAiIGQ9Ik00LDl2MzJjMCwwLDguNC0zLDIwLTNzMjAsMywyMCwzVjljMCwwLTYuNywzLTIwLDNTNCw5LDQsOXoiLz4mI3hhOyAgICA8cGF0aCBmaWxsPSIjOTQyQTA5IiBkPSJNMjQsMzRjMC4xLDAsMC4zLDAsMC40LDBMMTUsMTlMNi45LDM2LjJDMTAuMywzNS4zLDE2LjUsMzQsMjQsMzR6Ii8+JiN4YTsgICAgPHBhdGggZmlsbD0iI0JGMzYwQyIgZD0iTTI0LDM0YzMuMywwLDYuMywwLjIsOSwwLjZsLTgtMTEuOGwtNy44LDExLjVDMTkuMywzNC4xLDIxLjYsMzQsMjQsMzR6Ii8+JiN4YTsgICAgPHBhdGggZmlsbD0iI0U2NTEwMCIgZD0iTTQwLjcsMzZMMzUsMjYuNWwtNSw3LjhDMzQuNSwzNC43LDM4LjIsMzUuNCw0MC43LDM2eiIvPiYjeGE7ICAgIDxlbGxpcHNlIGZpbGw9IiNGRkY5QzQiIGN4PSIzNiIgY3k9IjE5LjUiIHJ4PSIyIiByeT0iMi41Ii8+JiN4YTs8L3N2Zz4=" parent="1" vertex="1">
          <mxGeometry x="330" y="424" width="28" height="28" as="geometry" />
        </mxCell>
        <mxCell id="warRbZFzXAgfNDQAufo_-13" value="" style="shape=image;verticalLabelPosition=bottom;verticalAlign=top;imageAspect=0;aspect=fixed;image=data:image/svg+xml,PHN2ZyB4bWxucz0iaHR0cDovL3d3dy53My5vcmcvMjAwMC9zdmciIHZlcnNpb249IjEiIHZpZXdCb3g9IjAgMCA0OCA0OCIgZW5hYmxlLWJhY2tncm91bmQ9Im5ldyAwIDAgNDggNDgiPiYjeGE7ICAgIDxwYXRoIGZpbGw9IiNGNTdDMDAiIGQ9Ik00LDl2MzJjMCwwLDguNC0zLDIwLTNzMjAsMywyMCwzVjljMCwwLTYuNywzLTIwLDNTNCw5LDQsOXoiLz4mI3hhOyAgICA8cGF0aCBmaWxsPSIjOTQyQTA5IiBkPSJNMjQsMzRjMC4xLDAsMC4zLDAsMC40LDBMMTUsMTlMNi45LDM2LjJDMTAuMywzNS4zLDE2LjUsMzQsMjQsMzR6Ii8+JiN4YTsgICAgPHBhdGggZmlsbD0iI0JGMzYwQyIgZD0iTTI0LDM0YzMuMywwLDYuMywwLjIsOSwwLjZsLTgtMTEuOGwtNy44LDExLjVDMTkuMywzNC4xLDIxLjYsMzQsMjQsMzR6Ii8+JiN4YTsgICAgPHBhdGggZmlsbD0iI0U2NTEwMCIgZD0iTTQwLjcsMzZMMzUsMjYuNWwtNSw3LjhDMzQuNSwzNC43LDM4LjIsMzUuNCw0MC43LDM2eiIvPiYjeGE7ICAgIDxlbGxpcHNlIGZpbGw9IiNGRkY5QzQiIGN4PSIzNiIgY3k9IjE5LjUiIHJ4PSIyIiByeT0iMi41Ii8+JiN4YTs8L3N2Zz4=" parent="1" vertex="1">
          <mxGeometry x="358" y="424" width="28" height="28" as="geometry" />
        </mxCell>
        <mxCell id="warRbZFzXAgfNDQAufo_-18" value="Apply for facial data" style="edgeStyle=orthogonalEdgeStyle;rounded=0;orthogonalLoop=1;jettySize=auto;html=1;exitX=0;exitY=0.5;exitDx=0;exitDy=0;fontSize=16;labelBackgroundColor=none;" parent="1" source="warRbZFzXAgfNDQAufo_-14" edge="1">
          <mxGeometry x="0.0026" y="-14" relative="1" as="geometry">
            <mxPoint x="292" y="194" as="targetPoint" />
            <Array as="points">
              <mxPoint x="484" y="194" />
            </Array>
            <mxPoint as="offset" />
          </mxGeometry>
        </mxCell>
        <mxCell id="warRbZFzXAgfNDQAufo_-26" value="&lt;font style=&quot;font-size: 16px&quot;&gt;Publish a task&lt;/font&gt;" style="edgeStyle=orthogonalEdgeStyle;rounded=0;orthogonalLoop=1;jettySize=auto;html=1;fontSize=17;entryX=0.5;entryY=0;entryDx=0;entryDy=0;labelBackgroundColor=none;exitX=0.25;exitY=1;exitDx=0;exitDy=0;" parent="1" source="warRbZFzXAgfNDQAufo_-14" target="warRbZFzXAgfNDQAufo_-24" edge="1">
          <mxGeometry x="-0.133" relative="1" as="geometry">
            <mxPoint x="690" y="240" as="sourcePoint" />
            <mxPoint x="590" y="320" as="targetPoint" />
            <Array as="points">
              <mxPoint x="688" y="354" />
            </Array>
            <mxPoint as="offset" />
          </mxGeometry>
        </mxCell>
        <mxCell id="warRbZFzXAgfNDQAufo_-14" value="Company node" style="shape=image;verticalLabelPosition=top;verticalAlign=bottom;imageAspect=0;aspect=fixed;image=data:image/svg+xml,PHN2ZyB4bWxucz0iaHR0cDovL3d3dy53My5vcmcvMjAwMC9zdmciIHZlcnNpb249IjEiIHZpZXdCb3g9IjAgMCA0OCA0OCIgZW5hYmxlLWJhY2tncm91bmQ9Im5ldyAwIDAgNDggNDgiPiYjeGE7ICAgIDxwb2x5Z29uIGZpbGw9IiNDNUNBRTkiIHBvaW50cz0iNDIsNDIgNiw0MiA2LDkgMjQsMiA0Miw5Ii8+JiN4YTsgICAgPHJlY3QgeD0iNiIgeT0iNDIiIGZpbGw9IiM5RkE4REEiIHdpZHRoPSIzNiIgaGVpZ2h0PSIyIi8+JiN4YTsgICAgPHJlY3QgeD0iMjAiIHk9IjM1IiBmaWxsPSIjQkYzNjBDIiB3aWR0aD0iOCIgaGVpZ2h0PSI5Ii8+JiN4YTsgICAgPGcgZmlsbD0iIzE1NjVDMCI+JiN4YTsgICAgICAgIDxyZWN0IHg9IjMxIiB5PSIyNyIgd2lkdGg9IjYiIGhlaWdodD0iNSIvPiYjeGE7ICAgICAgICA8cmVjdCB4PSIyMSIgeT0iMjciIHdpZHRoPSI2IiBoZWlnaHQ9IjUiLz4mI3hhOyAgICAgICAgPHJlY3QgeD0iMTEiIHk9IjI3IiB3aWR0aD0iNiIgaGVpZ2h0PSI1Ii8+JiN4YTsgICAgICAgIDxyZWN0IHg9IjMxIiB5PSIzNSIgd2lkdGg9IjYiIGhlaWdodD0iNSIvPiYjeGE7ICAgICAgICA8cmVjdCB4PSIxMSIgeT0iMzUiIHdpZHRoPSI2IiBoZWlnaHQ9IjUiLz4mI3hhOyAgICAgICAgPHJlY3QgeD0iMzEiIHk9IjE5IiB3aWR0aD0iNiIgaGVpZ2h0PSI1Ii8+JiN4YTsgICAgICAgIDxyZWN0IHg9IjIxIiB5PSIxOSIgd2lkdGg9IjYiIGhlaWdodD0iNSIvPiYjeGE7ICAgICAgICA8cmVjdCB4PSIxMSIgeT0iMTkiIHdpZHRoPSI2IiBoZWlnaHQ9IjUiLz4mI3hhOyAgICAgICAgPHJlY3QgeD0iMzEiIHk9IjExIiB3aWR0aD0iNiIgaGVpZ2h0PSI1Ii8+JiN4YTsgICAgICAgIDxyZWN0IHg9IjIxIiB5PSIxMSIgd2lkdGg9IjYiIGhlaWdodD0iNSIvPiYjeGE7ICAgICAgICA8cmVjdCB4PSIxMSIgeT0iMTEiIHdpZHRoPSI2IiBoZWlnaHQ9IjUiLz4mI3hhOyAgICA8L2c+JiN4YTs8L3N2Zz4=;labelPosition=center;align=center;fontSize=16;" parent="1" vertex="1">
          <mxGeometry x="676" y="170" width="48" height="48" as="geometry" />
        </mxCell>
        <mxCell id="warRbZFzXAgfNDQAufo_-15" value="" style="shape=image;verticalLabelPosition=bottom;verticalAlign=top;imageAspect=0;aspect=fixed;image=data:image/svg+xml,PHN2ZyB4bWxucz0iaHR0cDovL3d3dy53My5vcmcvMjAwMC9zdmciIHZlcnNpb249IjEiIHZpZXdCb3g9IjAgMCA0OCA0OCIgZW5hYmxlLWJhY2tncm91bmQ9Im5ldyAwIDAgNDggNDgiPiYjeGE7ICAgIDxnIGZpbGw9IiMxOTc2RDIiPiYjeGE7ICAgICAgICA8cGF0aCBkPSJNMzgsMTNoLTNjLTUuNSwwLTEwLDQuNS0xMCwxMHM0LjUsMTAsMTAsMTBoM2M1LjUsMCwxMC00LjUsMTAtMTBTNDMuNSwxMywzOCwxM3ogTTM4LDI5aC0zIGMtMy4zLDAtNi0yLjctNi02czIuNy02LDYtNmgzYzMuMywwLDYsMi43LDYsNlM0MS4zLDI5LDM4LDI5eiIvPiYjeGE7ICAgICAgICA8cGF0aCBkPSJNMTMsMTNoLTNDNC41LDEzLDAsMTcuNSwwLDIzczQuNSwxMCwxMCwxMGgzYzUuNSwwLDEwLTQuNSwxMC0xMFMxOC41LDEzLDEzLDEzeiBNMTMsMjloLTMgYy0zLjMsMC02LTIuNy02LTZzMi43LTYsNi02aDNjMy4zLDAsNiwyLjcsNiw2UzE2LjMsMjksMTMsMjl6Ii8+JiN4YTsgICAgPC9nPiYjeGE7ICAgIDxwYXRoIGZpbGw9IiM0MkE1RjUiIGQ9Ik0zMywyMUgxNWMtMS4xLDAtMiwwLjktMiwyczAuOSwyLDIsMmgxOGMxLjEsMCwyLTAuOSwyLTJTMzQuMSwyMSwzMywyMXoiLz4mI3hhOzwvc3ZnPg==;fontSize=16;" parent="1" vertex="1">
          <mxGeometry x="320" y="303" width="48" height="48" as="geometry" />
        </mxCell>
        <mxCell id="warRbZFzXAgfNDQAufo_-16" value="" style="shape=image;verticalLabelPosition=bottom;verticalAlign=top;imageAspect=0;aspect=fixed;image=data:image/svg+xml,PHN2ZyB4bWxucz0iaHR0cDovL3d3dy53My5vcmcvMjAwMC9zdmciIHZlcnNpb249IjEiIHZpZXdCb3g9IjAgMCA0OCA0OCIgZW5hYmxlLWJhY2tncm91bmQ9Im5ldyAwIDAgNDggNDgiPiYjeGE7ICAgIDxnIGZpbGw9IiMxOTc2RDIiPiYjeGE7ICAgICAgICA8cGF0aCBkPSJNMzgsMTNoLTNjLTUuNSwwLTEwLDQuNS0xMCwxMHM0LjUsMTAsMTAsMTBoM2M1LjUsMCwxMC00LjUsMTAtMTBTNDMuNSwxMywzOCwxM3ogTTM4LDI5aC0zIGMtMy4zLDAtNi0yLjctNi02czIuNy02LDYtNmgzYzMuMywwLDYsMi43LDYsNlM0MS4zLDI5LDM4LDI5eiIvPiYjeGE7ICAgICAgICA8cGF0aCBkPSJNMTMsMTNoLTNDNC41LDEzLDAsMTcuNSwwLDIzczQuNSwxMCwxMCwxMGgzYzUuNSwwLDEwLTQuNSwxMC0xMFMxOC41LDEzLDEzLDEzeiBNMTMsMjloLTMgYy0zLjMsMC02LTIuNy02LTZzMi43LTYsNi02aDNjMy4zLDAsNiwyLjcsNiw2UzE2LjMsMjksMTMsMjl6Ii8+JiN4YTsgICAgPC9nPiYjeGE7ICAgIDxwYXRoIGZpbGw9IiM0MkE1RjUiIGQ9Ik0zMywyMUgxNWMtMS4xLDAtMiwwLjktMiwyczAuOSwyLDIsMmgxOGMxLjEsMCwyLTAuOSwyLTJTMzQuMSwyMSwzMywyMXoiLz4mI3hhOzwvc3ZnPg==" parent="1" vertex="1">
          <mxGeometry x="368" y="303" width="48" height="48" as="geometry" />
        </mxCell>
        <mxCell id="warRbZFzXAgfNDQAufo_-27" value="Call for facial data" style="edgeStyle=orthogonalEdgeStyle;rounded=0;orthogonalLoop=1;jettySize=auto;html=1;entryX=1;entryY=0.25;entryDx=0;entryDy=0;fontSize=16;labelBackgroundColor=none;" parent="1" edge="1">
          <mxGeometry x="0.7143" y="29" relative="1" as="geometry">
            <mxPoint x="577" y="375" as="sourcePoint" />
            <mxPoint x="430" y="438.0000000000002" as="targetPoint" />
            <Array as="points">
              <mxPoint x="577" y="375" />
              <mxPoint x="430" y="375" />
            </Array>
            <mxPoint as="offset" />
          </mxGeometry>
        </mxCell>
        <mxCell id="warRbZFzXAgfNDQAufo_-24" value="" style="shape=image;verticalLabelPosition=top;verticalAlign=bottom;imageAspect=0;aspect=fixed;image=data:image/svg+xml,PHN2ZyB4bWxucz0iaHR0cDovL3d3dy53My5vcmcvMjAwMC9zdmciIHZlcnNpb249IjEiIHZpZXdCb3g9IjAgMCA0OCA0OCIgZW5hYmxlLWJhY2tncm91bmQ9Im5ldyAwIDAgNDggNDgiPiYjeGE7ICAgIDxwb2x5Z29uIGZpbGw9IiNDRkQ4REMiIHBvaW50cz0iMzkuNCwyMyAzOC42LDE5IDI2LDIxLjYgMjYsOCAyMiw4IDIyLDIwLjMgOC4xLDExLjMgNS45LDE0LjcgMjEuMSwyNC41IDkuNCwzOS44IDEyLjYsNDIuMiAyMy45LDI3LjQgMzIuMyw0MC4xIDM1LjcsMzcuOSAyNy4zLDI1LjQiLz4mI3hhOyAgICA8Y2lyY2xlIGZpbGw9IiMzRjUxQjUiIGN4PSIyNCIgY3k9IjI0IiByPSI3Ii8+JiN4YTsgICAgPGcgZmlsbD0iIzAwQkNENCI+JiN4YTsgICAgICAgIDxjaXJjbGUgY3g9IjI0IiBjeT0iOCIgcj0iNSIvPiYjeGE7ICAgICAgICA8Y2lyY2xlIGN4PSIzOSIgY3k9IjIxIiByPSI1Ii8+JiN4YTsgICAgICAgIDxjaXJjbGUgY3g9IjciIGN5PSIxMyIgcj0iNSIvPiYjeGE7ICAgICAgICA8Y2lyY2xlIGN4PSIxMSIgY3k9IjQxIiByPSI1Ii8+JiN4YTsgICAgICAgIDxjaXJjbGUgY3g9IjM0IiBjeT0iMzkiIHI9IjUiLz4mI3hhOyAgICA8L2c+JiN4YTs8L3N2Zz4=;labelPosition=left;align=right;fontSize=15;" parent="1" vertex="1">
          <mxGeometry x="558" y="354" width="48" height="48" as="geometry" />
        </mxCell>
        <mxCell id="warRbZFzXAgfNDQAufo_-30" value="" style="shape=image;verticalLabelPosition=bottom;verticalAlign=top;imageAspect=0;aspect=fixed;image=data:image/svg+xml,PHN2ZyB4bWxucz0iaHR0cDovL3d3dy53My5vcmcvMjAwMC9zdmciIHZlcnNpb249IjEiIHZpZXdCb3g9IjAgMCA0OCA0OCIgZW5hYmxlLWJhY2tncm91bmQ9Im5ldyAwIDAgNDggNDgiPiYjeGE7ICAgIDxwYXRoIGZpbGw9IiNGRjk4MDAiIGQ9Ik01LDM1VjEzYzAtMi4yLDEuOC00LDQtNGgzMGMyLjIsMCw0LDEuOCw0LDR2MjJjMCwyLjItMS44LDQtNCw0SDlDNi44LDM5LDUsMzcuMiw1LDM1eiIvPiYjeGE7ICAgIDxnIGZpbGw9IiNGRkQ1NEYiPiYjeGE7ICAgICAgICA8cGF0aCBkPSJNNDMsMjF2LTJIMzFjLTEuMSwwLTItMC45LTItMnMwLjktMiwyLTJoMXYtMmgtMWMtMi4yLDAtNCwxLjgtNCw0czEuOCw0LDQsNGgzdjZoLTNjLTIuOCwwLTUsMi4yLTUsNSBzMi4yLDUsNSw1aDJ2LTJoLTJjLTEuNywwLTMtMS4zLTMtM3MxLjMtMywzLTNoMTJ2LTJoLTd2LTZINDN6Ii8+JiN4YTsgICAgICAgIDxwYXRoIGQ9Ik0xNywyN2gtM3YtNmgzYzIuMiwwLDQtMS44LDQtNHMtMS44LTQtNC00aC0zdjJoM2MxLjEsMCwyLDAuOSwyLDJzLTAuOSwyLTIsMkg1djJoN3Y2SDV2MmgxMiBjMS43LDAsMywxLjMsMywzcy0xLjMsMy0zLDNoLTJ2MmgyYzIuOCwwLDUtMi4yLDUtNVMxOS44LDI3LDE3LDI3eiIvPiYjeGE7ICAgIDwvZz4mI3hhOzwvc3ZnPg==" parent="1" vertex="1">
          <mxGeometry x="711" y="245" width="30" height="30" as="geometry" />
        </mxCell>
        <mxCell id="0rC25lrR3l2vgve8mlDE-75" value="" style="group;shadow=1;" vertex="1" connectable="0" parent="1">
          <mxGeometry x="453" y="205" width="170" height="137" as="geometry" />
        </mxCell>
        <mxCell id="0rC25lrR3l2vgve8mlDE-55" value="" style="rounded=0;whiteSpace=wrap;html=1;" vertex="1" parent="0rC25lrR3l2vgve8mlDE-75">
          <mxGeometry x="18.88888888888889" width="151.11111111111111" height="137" as="geometry" />
        </mxCell>
        <mxCell id="0rC25lrR3l2vgve8mlDE-33" value="" style="shape=table;html=1;whiteSpace=wrap;startSize=0;container=1;collapsible=0;childLayout=tableLayout;fontSize=8;" vertex="1" parent="0rC25lrR3l2vgve8mlDE-75">
          <mxGeometry x="23.61111111111111" y="54.10191082802548" width="141.66666666666666" height="74.171974522293" as="geometry" />
        </mxCell>
        <mxCell id="0rC25lrR3l2vgve8mlDE-34" value="" style="shape=partialRectangle;html=1;whiteSpace=wrap;collapsible=0;dropTarget=0;pointerEvents=0;fillColor=none;top=0;left=0;bottom=0;right=0;points=[[0,0.5],[1,0.5]];portConstraint=eastwest;fontSize=8;" vertex="1" parent="0rC25lrR3l2vgve8mlDE-33">
          <mxGeometry width="141.66666666666666" height="18" as="geometry" />
        </mxCell>
        <mxCell id="0rC25lrR3l2vgve8mlDE-35" value="" style="shape=partialRectangle;html=1;whiteSpace=wrap;connectable=0;fillColor=none;top=0;left=0;bottom=0;right=0;overflow=hidden;fontSize=8;" vertex="1" parent="0rC25lrR3l2vgve8mlDE-34">
          <mxGeometry width="19" height="18" as="geometry" />
        </mxCell>
        <mxCell id="0rC25lrR3l2vgve8mlDE-36" value="&lt;span style=&quot;text-align: left&quot;&gt;&lt;font style=&quot;font-size: 11px&quot;&gt;Hash list&lt;/font&gt;&lt;/span&gt;" style="shape=partialRectangle;html=1;whiteSpace=wrap;connectable=0;fillColor=none;top=0;left=0;bottom=0;right=0;overflow=hidden;fontSize=8;" vertex="1" parent="0rC25lrR3l2vgve8mlDE-34">
          <mxGeometry x="19" width="57" height="18" as="geometry" />
        </mxCell>
        <mxCell id="0rC25lrR3l2vgve8mlDE-37" value="&lt;span style=&quot;text-align: left; font-size: 8px;&quot;&gt;Key list&lt;/span&gt;" style="shape=partialRectangle;html=1;whiteSpace=wrap;connectable=0;fillColor=none;top=0;left=0;bottom=0;right=0;overflow=hidden;fontSize=8;" vertex="1" parent="0rC25lrR3l2vgve8mlDE-34">
          <mxGeometry x="76" width="66" height="18" as="geometry" />
        </mxCell>
        <mxCell id="0rC25lrR3l2vgve8mlDE-38" value="" style="shape=partialRectangle;html=1;whiteSpace=wrap;collapsible=0;dropTarget=0;pointerEvents=0;fillColor=none;top=0;left=0;bottom=0;right=0;points=[[0,0.5],[1,0.5]];portConstraint=eastwest;fontSize=8;" vertex="1" parent="0rC25lrR3l2vgve8mlDE-33">
          <mxGeometry y="18" width="141.66666666666666" height="21" as="geometry" />
        </mxCell>
        <mxCell id="0rC25lrR3l2vgve8mlDE-39" value="1" style="shape=partialRectangle;html=1;whiteSpace=wrap;connectable=0;fillColor=none;top=0;left=0;bottom=0;right=0;overflow=hidden;fontSize=8;" vertex="1" parent="0rC25lrR3l2vgve8mlDE-38">
          <mxGeometry width="19" height="21" as="geometry" />
        </mxCell>
        <mxCell id="0rC25lrR3l2vgve8mlDE-40" value="&lt;span style=&quot;text-align: left&quot;&gt;&lt;font style=&quot;font-size: 11px&quot;&gt;hash_1&lt;/font&gt;&lt;/span&gt;" style="shape=partialRectangle;html=1;whiteSpace=wrap;connectable=0;fillColor=none;top=0;left=0;bottom=0;right=0;overflow=hidden;fontSize=8;fontStyle=0" vertex="1" parent="0rC25lrR3l2vgve8mlDE-38">
          <mxGeometry x="19" width="57" height="21" as="geometry" />
        </mxCell>
        <mxCell id="0rC25lrR3l2vgve8mlDE-41" value="&lt;span style=&quot;text-align: left; font-size: 8px;&quot;&gt;sk&lt;/span&gt;&lt;sub style=&quot;text-align: left; font-size: 8px;&quot;&gt;decrypt_1&lt;/sub&gt;" style="shape=partialRectangle;html=1;whiteSpace=wrap;connectable=0;fillColor=none;top=0;left=0;bottom=0;right=0;overflow=hidden;fontSize=8;" vertex="1" parent="0rC25lrR3l2vgve8mlDE-38">
          <mxGeometry x="76" width="66" height="21" as="geometry" />
        </mxCell>
        <mxCell id="0rC25lrR3l2vgve8mlDE-42" value="" style="shape=partialRectangle;html=1;whiteSpace=wrap;collapsible=0;dropTarget=0;pointerEvents=0;fillColor=none;top=0;left=0;bottom=0;right=0;points=[[0,0.5],[1,0.5]];portConstraint=eastwest;fontSize=8;" vertex="1" parent="0rC25lrR3l2vgve8mlDE-33">
          <mxGeometry y="39" width="141.66666666666666" height="18" as="geometry" />
        </mxCell>
        <mxCell id="0rC25lrR3l2vgve8mlDE-43" value="2" style="shape=partialRectangle;html=1;whiteSpace=wrap;connectable=0;fillColor=none;top=0;left=0;bottom=0;right=0;overflow=hidden;fontSize=8;" vertex="1" parent="0rC25lrR3l2vgve8mlDE-42">
          <mxGeometry width="19" height="18" as="geometry" />
        </mxCell>
        <mxCell id="0rC25lrR3l2vgve8mlDE-44" value="&lt;span style=&quot;color: rgb(0, 0, 0); font-family: helvetica; font-size: 8px; font-style: normal; font-weight: 400; letter-spacing: normal; text-align: left; text-indent: 0px; text-transform: none; word-spacing: 0px; background-color: rgb(248, 249, 250); display: inline; float: none;&quot;&gt;hash_2&lt;/span&gt;" style="shape=partialRectangle;html=1;whiteSpace=wrap;connectable=0;fillColor=none;top=0;left=0;bottom=0;right=0;overflow=hidden;fontSize=8;" vertex="1" parent="0rC25lrR3l2vgve8mlDE-42">
          <mxGeometry x="19" width="57" height="18" as="geometry" />
        </mxCell>
        <mxCell id="0rC25lrR3l2vgve8mlDE-45" value="&lt;span style=&quot;text-align: left; font-size: 8px;&quot;&gt;sk&lt;/span&gt;&lt;sub style=&quot;text-align: left; font-size: 8px;&quot;&gt;decrypt_2&lt;/sub&gt;" style="shape=partialRectangle;html=1;whiteSpace=wrap;connectable=0;fillColor=none;top=0;left=0;bottom=0;right=0;overflow=hidden;fontSize=8;" vertex="1" parent="0rC25lrR3l2vgve8mlDE-42">
          <mxGeometry x="76" width="66" height="18" as="geometry" />
        </mxCell>
        <mxCell id="0rC25lrR3l2vgve8mlDE-50" style="shape=partialRectangle;html=1;whiteSpace=wrap;collapsible=0;dropTarget=0;pointerEvents=0;fillColor=none;top=0;left=0;bottom=0;right=0;points=[[0,0.5],[1,0.5]];portConstraint=eastwest;fontSize=8;" vertex="1" parent="0rC25lrR3l2vgve8mlDE-33">
          <mxGeometry y="57" width="141.66666666666666" height="17" as="geometry" />
        </mxCell>
        <mxCell id="0rC25lrR3l2vgve8mlDE-51" value="....." style="shape=partialRectangle;html=1;whiteSpace=wrap;connectable=0;fillColor=none;top=0;left=0;bottom=0;right=0;overflow=hidden;fontSize=8;" vertex="1" parent="0rC25lrR3l2vgve8mlDE-50">
          <mxGeometry width="19" height="17" as="geometry" />
        </mxCell>
        <mxCell id="0rC25lrR3l2vgve8mlDE-52" value="......" style="shape=partialRectangle;html=1;whiteSpace=wrap;connectable=0;fillColor=none;top=0;left=0;bottom=0;right=0;overflow=hidden;fontSize=8;" vertex="1" parent="0rC25lrR3l2vgve8mlDE-50">
          <mxGeometry x="19" width="57" height="17" as="geometry" />
        </mxCell>
        <mxCell id="0rC25lrR3l2vgve8mlDE-53" value="......" style="shape=partialRectangle;html=1;whiteSpace=wrap;connectable=0;fillColor=none;top=0;left=0;bottom=0;right=0;overflow=hidden;fontSize=8;" vertex="1" parent="0rC25lrR3l2vgve8mlDE-50">
          <mxGeometry x="76" width="66" height="17" as="geometry" />
        </mxCell>
        <mxCell id="0rC25lrR3l2vgve8mlDE-56" value="&lt;b&gt;&lt;font style=&quot;font-size: 14px&quot;&gt;Task&lt;/font&gt;&lt;/b&gt;" style="text;html=1;strokeColor=none;fillColor=none;align=center;verticalAlign=middle;whiteSpace=wrap;rounded=0;" vertex="1" parent="0rC25lrR3l2vgve8mlDE-75">
          <mxGeometry x="75.55555555555556" y="4.3630573248407645" width="37.77777777777778" height="14.834394904458598" as="geometry" />
        </mxCell>
        <mxCell id="0rC25lrR3l2vgve8mlDE-57" value="&lt;font style=&quot;font-size: 12px&quot;&gt;Task requirement&lt;/font&gt;" style="text;html=1;strokeColor=none;fillColor=none;align=center;verticalAlign=middle;whiteSpace=wrap;rounded=0;" vertex="1" parent="0rC25lrR3l2vgve8mlDE-75">
          <mxGeometry x="12.277777777777777" y="19.197452229299365" width="113.33333333333333" height="14.834394904458598" as="geometry" />
        </mxCell>
        <mxCell id="0rC25lrR3l2vgve8mlDE-58" value="&lt;font style=&quot;font-size: 12px&quot;&gt;Task reward&lt;/font&gt;" style="text;html=1;strokeColor=none;fillColor=none;align=center;verticalAlign=middle;whiteSpace=wrap;rounded=0;" vertex="1" parent="0rC25lrR3l2vgve8mlDE-75">
          <mxGeometry y="34.031847133757964" width="113.33333333333333" height="14.834394904458598" as="geometry" />
        </mxCell>
        <mxCell id="0rC25lrR3l2vgve8mlDE-77" value="&lt;font style=&quot;font-size: 16px&quot;&gt;&lt;b&gt;Blockchain&lt;/b&gt;&lt;/font&gt;" style="text;html=1;strokeColor=none;fillColor=none;align=center;verticalAlign=middle;whiteSpace=wrap;rounded=0;fontSize=8;" vertex="1" parent="1">
          <mxGeometry x="354" y="346" width="40" height="20" as="geometry" />
        </mxCell>
      </root>
    </mxGraphModel>
  </diagram>
</mxfile>
